<svg width="567" height="158" viewBox="0 0 567 158" fill="none" xmlns="http://www.w3.org/2000/svg">
<rect x="1" y="32" width="565" height="125" rx="23" fill="white" stroke="#1B4332" stroke-width="2" stroke-dasharray="6 6"/>
<path d="M321.391 138C320.297 138 319.75 137.414 319.75 136.242V106.148C319.75 104.977 320.297 104.391 321.391 104.391H324.953C326.047 104.391 326.594 104.977 326.594 106.148V136.242C326.594 137.414 326.047 138 324.953 138H321.391ZM334.938 138C334 138 333.531 137.531 333.531 136.594V114.797C333.531 113.859 334 113.391 334.938 113.391H338.641C339.578 113.391 340.047 113.859 340.047 114.797V116.156H340.141C340.859 114.922 341.773 114.078 342.883 113.625C343.992 113.156 345.328 112.922 346.891 112.922C349.328 112.922 351.344 113.688 352.938 115.219C354.531 116.75 355.328 119.547 355.328 123.609V136.594C355.328 137.531 354.859 138 353.922 138H350.172C349.234 138 348.766 137.531 348.766 136.594V125.297C348.766 121.891 348.531 119.742 348.062 118.852C347.594 117.961 346.586 117.516 345.039 117.516C343.398 117.516 342.164 118.156 341.336 119.438C340.508 120.703 340.094 123.344 340.094 127.359V136.594C340.094 137.531 339.625 138 338.688 138H334.938ZM360.039 115.219C359.648 114 359.906 113.391 360.812 113.391H365.008C365.742 113.391 366.211 113.789 366.414 114.586L370.047 128.32C370.25 129.086 370.414 129.844 370.539 130.594C370.68 131.344 370.766 131.953 370.797 132.422H370.938C370.969 131.953 371.047 131.344 371.172 130.594C371.312 129.844 371.484 129.086 371.688 128.32L375.32 114.586C375.523 113.789 375.992 113.391 376.727 113.391H380.922C381.828 113.391 382.086 114 381.695 115.219L374.898 136.43C374.57 137.477 374 138 373.188 138H368.547C367.734 138 367.164 137.477 366.836 136.43L360.039 115.219ZM383.969 125.695C383.969 121.742 384.953 118.625 386.922 116.344C388.906 114.062 391.703 112.922 395.312 112.922C399.5 112.922 402.609 114 404.641 116.156C406.672 118.312 407.688 121.781 407.688 126.562C407.688 127.5 407.25 127.969 406.375 127.969H390.906C391.156 130.562 391.797 132.195 392.828 132.867C393.859 133.539 395.055 133.875 396.414 133.875C397.711 133.875 398.703 133.703 399.391 133.359C400.078 133.016 400.656 132.547 401.125 131.953C401.656 131.266 402.312 131.156 403.094 131.625L405.438 133.055C406.359 133.617 406.492 134.289 405.836 135.07C404.883 136.211 403.766 137.062 402.484 137.625C401.203 138.188 399.18 138.469 396.414 138.469C391.93 138.469 388.734 137.328 386.828 135.047C384.922 132.766 383.969 129.648 383.969 125.695ZM390.93 123.281H401.125C401.125 121.594 400.703 120.219 399.859 119.156C399.016 118.078 397.672 117.539 395.828 117.539C394.359 117.539 393.195 118.055 392.336 119.086C391.477 120.102 391.008 121.5 390.93 123.281ZM412.305 136.359C411.539 135.812 411.328 135.227 411.672 134.602L412.867 132.422C413.289 131.641 413.945 131.547 414.836 132.141C415.727 132.734 416.773 133.172 417.977 133.453C419.195 133.734 420.305 133.875 421.305 133.875C422.008 133.875 422.664 133.805 423.273 133.664C423.883 133.523 424.398 133.25 424.82 132.844C425.242 132.438 425.453 131.844 425.453 131.062C425.453 130.594 425.328 130.195 425.078 129.867C424.828 129.539 424.508 129.289 424.117 129.117C423.727 128.945 423.312 128.805 422.875 128.695C422.297 128.555 421.461 128.32 420.367 127.992C419.289 127.664 418.25 127.281 417.25 126.844C416.422 126.484 415.609 125.984 414.812 125.344C414.031 124.688 413.453 123.961 413.078 123.164C412.719 122.367 412.539 121.383 412.539 120.211C412.539 118.633 412.992 117.25 413.898 116.062C414.82 114.875 416.008 114.055 417.461 113.602C418.914 113.148 420.727 112.922 422.898 112.922C424.367 112.922 425.797 113.133 427.188 113.555C428.578 113.977 429.57 114.375 430.164 114.75C431.102 115.344 431.336 115.977 430.867 116.648L429.438 118.734C429 119.359 428.297 119.406 427.328 118.875C426.594 118.469 425.867 118.141 425.148 117.891C424.445 117.641 423.656 117.516 422.781 117.516C422.188 117.516 421.617 117.578 421.07 117.703C420.523 117.828 420.055 118.062 419.664 118.406C419.289 118.75 419.102 119.203 419.102 119.766C419.102 120.359 419.273 120.828 419.617 121.172C419.977 121.5 420.383 121.742 420.836 121.898C421.305 122.055 421.75 122.203 422.172 122.344C423.047 122.625 423.93 122.898 424.82 123.164C425.711 123.414 426.617 123.719 427.539 124.078C428.336 124.391 429.109 124.836 429.859 125.414C430.609 125.992 431.156 126.727 431.5 127.617C431.844 128.508 432.016 129.523 432.016 130.664C432.016 132.18 431.562 133.586 430.656 134.883C429.75 136.18 428.555 137.102 427.07 137.648C425.586 138.195 423.859 138.469 421.891 138.469C419.688 138.469 417.812 138.312 416.266 138C414.719 137.688 413.398 137.141 412.305 136.359ZM435.555 118.078C434.633 118.078 434.172 117.688 434.172 116.906V114.562C434.172 113.781 434.633 113.391 435.555 113.391H437.148V112.57C437.148 111.867 437.312 111.227 437.641 110.648L439.445 107.484C439.789 106.891 440.195 106.594 440.664 106.594H442.305C443.242 106.594 443.711 107.062 443.711 108V113.391H447.508C448.43 113.391 448.891 113.781 448.891 114.562V116.906C448.891 117.688 448.43 118.078 447.508 118.078H443.711V129.703C443.711 131.297 443.82 132.445 444.039 133.148C444.273 133.836 444.867 134.18 445.82 134.18C446.305 134.18 446.852 134.102 447.461 133.945C448.07 133.773 448.547 133.609 448.891 133.453C449.438 133.203 449.797 133.383 449.969 133.992L450.672 136.664C450.812 137.195 450.609 137.586 450.062 137.836C449.547 138.07 448.836 138.281 447.93 138.469C447.039 138.672 446.141 138.773 445.234 138.773C443 138.773 441.094 138.312 439.516 137.391C437.938 136.469 437.148 134.57 437.148 131.695V118.078H435.555ZM456.484 138C455.547 138 455.078 137.531 455.078 136.594V114.797C455.078 113.859 455.547 113.391 456.484 113.391H460.234C461.172 113.391 461.641 113.859 461.641 114.797V136.594C461.641 137.531 461.172 138 460.234 138H456.484ZM456.484 109.781C455.547 109.781 455.078 109.312 455.078 108.375V105.375C455.078 104.438 455.547 103.969 456.484 103.969H460.234C461.172 103.969 461.641 104.438 461.641 105.375V108.375C461.641 109.312 461.172 109.781 460.234 109.781H456.484ZM466.703 125.695C466.703 122.258 467.445 119.273 468.93 116.742C470.43 114.195 473.016 112.922 476.688 112.922C478.094 112.922 479.297 113.125 480.297 113.531C481.297 113.938 482.203 114.812 483.016 116.156H483.109C483.047 115.531 483.016 114.906 483.016 114.281V104.812C483.016 103.875 483.484 103.406 484.422 103.406H488.172C489.109 103.406 489.578 103.875 489.578 104.812V136.594C489.578 137.531 489.109 138 488.172 138H484.469C483.688 138 483.266 137.531 483.203 136.594L483.109 135.234H483.016C482.203 136.578 481.297 137.453 480.297 137.859C479.297 138.266 478.094 138.469 476.688 138.469C473.016 138.469 470.43 137.203 468.93 134.672C467.445 132.125 466.703 129.133 466.703 125.695ZM473.641 125.695C473.641 128.195 473.961 130.188 474.602 131.672C475.258 133.141 476.641 133.875 478.75 133.875C479.922 133.875 480.922 133.219 481.75 131.906C482.594 130.578 483.016 128.859 483.016 126.75V124.641C483.016 122.531 482.594 120.82 481.75 119.508C480.922 118.18 479.922 117.516 478.75 117.516C476.641 117.516 475.258 118.258 474.602 119.742C473.961 121.211 473.641 123.195 473.641 125.695ZM494.641 125.695C494.641 121.711 495.664 118.586 497.711 116.32C499.773 114.055 502.836 112.922 506.898 112.922C510.961 112.922 514.016 114.055 516.062 116.32C518.125 118.586 519.156 121.711 519.156 125.695C519.156 129.68 518.125 132.805 516.062 135.07C514.016 137.336 510.961 138.469 506.898 138.469C502.836 138.469 499.773 137.336 497.711 135.07C495.664 132.805 494.641 129.68 494.641 125.695ZM501.578 125.695C501.578 128.664 502.031 130.773 502.938 132.023C503.859 133.258 505.18 133.875 506.898 133.875C508.617 133.875 509.93 133.258 510.836 132.023C511.758 130.773 512.219 128.664 512.219 125.695C512.219 122.727 511.758 120.625 510.836 119.391C509.93 118.141 508.617 117.516 506.898 117.516C505.18 117.516 503.859 118.141 502.938 119.391C502.031 120.625 501.578 122.727 501.578 125.695ZM525.625 138C524.688 138 524.219 137.531 524.219 136.594V114.797C524.219 113.859 524.688 113.391 525.625 113.391H529.328C530.266 113.391 530.734 113.859 530.734 114.797V116.719H530.828C531.234 115.719 531.914 114.836 532.867 114.07C533.82 113.305 534.945 112.922 536.242 112.922C537.133 112.922 537.867 113.031 538.445 113.25C538.992 113.453 539.203 113.828 539.078 114.375L538.422 117.164C538.281 117.789 537.859 117.977 537.156 117.727C536.75 117.586 536.359 117.516 535.984 117.516C534.484 117.516 533.242 118.414 532.258 120.211C531.273 122.008 530.781 124.625 530.781 128.062V136.594C530.781 137.531 530.312 138 529.375 138H525.625Z" fill="#1B4332"/>
<path d="M104.809 105.231L97.5717 86.9359C97.5717 86.9359 96.808 79.6739 96.117 76.8808C93.0984 64.3818 78.5513 53 62.7677 53C43.5654 53.0349 28 68.0128 28 86.4471C28 96.6768 32.9097 106.348 41.2743 112.667V138H78.3695V131.486V126.433C85.934 126.433 97.5353 125.585 97.5353 118.323V108.966H102.154C103.718 108.966 104.991 107.744 104.991 106.243C105.027 105.894 104.954 105.58 104.809 105.231ZM62.6222 103.101C52.0755 103.101 43.5291 94.8962 43.5291 84.7713C43.5291 74.6464 52.0755 66.4417 62.6222 66.4417C73.1689 66.4417 81.6789 74.6464 81.7153 84.7713C81.7517 94.8613 73.2416 103.066 62.7313 103.101C62.6586 103.101 62.6586 103.101 62.6222 103.101ZM64.4406 82.9907C61.8221 81.9433 60.5856 81.4894 60.5856 80.1976C60.5856 79.2899 61.6403 78.3472 63.5678 78.3472C65.0225 78.3821 66.4772 78.6963 67.7864 79.2549L68.8411 75.6589C67.3136 74.9257 65.6044 74.5765 63.8951 74.6115V71.7485H61.2402V74.786C57.7125 75.4843 55.785 77.6489 55.785 80.442C55.785 83.4795 57.9671 85.1553 61.4584 86.3424C63.9678 87.2851 65.0225 87.8088 65.0225 89.0656C65.0225 90.3225 63.9678 91.2652 61.7494 91.2652C59.931 91.2303 58.1853 90.7764 56.5851 90.0083L55.6396 93.7091C56.767 94.3027 59.0581 94.8962 61.3129 94.8962V97.6893H63.9678V94.8264C67.8228 93.9884 69.6412 91.8238 69.6412 88.926C69.6412 86.0282 68.041 84.2476 64.4406 82.9907Z" fill="#2D6A4F"/>
<path d="M122.404 138C121.31 138 120.763 137.414 120.763 136.242V106.148C120.763 104.977 121.31 104.391 122.404 104.391H129.201C130.107 104.391 130.755 105.016 131.146 106.266L137.498 126.82C137.779 127.711 137.974 128.445 138.084 129.023C138.193 129.586 138.287 130.258 138.365 131.039H138.505C138.584 130.258 138.677 129.586 138.787 129.023C138.896 128.445 139.091 127.711 139.373 126.82L145.724 106.266C146.115 105.016 146.763 104.391 147.67 104.391H154.466C155.56 104.391 156.107 104.977 156.107 106.148V136.242C156.107 137.414 155.56 138 154.466 138H150.904C149.81 138 149.263 137.414 149.263 136.242V116.883C149.263 115.945 149.302 115.008 149.38 114.07H149.216L142.443 136.102C142.052 137.367 141.38 138 140.427 138H136.443C135.49 138 134.818 137.367 134.427 136.102L127.654 114.07H127.49C127.568 115.008 127.607 115.945 127.607 116.883V136.242C127.607 137.414 127.06 138 125.966 138H122.404ZM164.451 138C163.513 138 163.045 137.531 163.045 136.594V114.797C163.045 113.859 163.513 113.391 164.451 113.391H168.201C169.138 113.391 169.607 113.859 169.607 114.797V136.594C169.607 137.531 169.138 138 168.201 138H164.451ZM164.451 109.781C163.513 109.781 163.045 109.312 163.045 108.375V105.375C163.045 104.438 163.513 103.969 164.451 103.969H168.201C169.138 103.969 169.607 104.438 169.607 105.375V108.375C169.607 109.312 169.138 109.781 168.201 109.781H164.451ZM177.388 138C176.451 138 175.982 137.531 175.982 136.594V114.797C175.982 113.859 176.451 113.391 177.388 113.391H181.091C182.029 113.391 182.498 113.859 182.498 114.797V116.156H182.591C183.31 114.922 184.224 114.078 185.334 113.625C186.443 113.156 187.779 112.922 189.341 112.922C191.779 112.922 193.795 113.688 195.388 115.219C196.982 116.75 197.779 119.547 197.779 123.609V136.594C197.779 137.531 197.31 138 196.373 138H192.623C191.685 138 191.216 137.531 191.216 136.594V125.297C191.216 121.891 190.982 119.742 190.513 118.852C190.045 117.961 189.037 117.516 187.49 117.516C185.849 117.516 184.615 118.156 183.787 119.438C182.959 120.703 182.545 123.344 182.545 127.359V136.594C182.545 137.531 182.076 138 181.138 138H177.388ZM202.795 125.695C202.795 122.258 203.537 119.273 205.021 116.742C206.521 114.195 209.107 112.922 212.779 112.922C214.185 112.922 215.388 113.125 216.388 113.531C217.388 113.938 218.295 114.812 219.107 116.156H219.201C219.138 115.531 219.107 114.906 219.107 114.281V104.812C219.107 103.875 219.576 103.406 220.513 103.406H224.263C225.201 103.406 225.67 103.875 225.67 104.812V136.594C225.67 137.531 225.201 138 224.263 138H220.56C219.779 138 219.357 137.531 219.295 136.594L219.201 135.234H219.107C218.295 136.578 217.388 137.453 216.388 137.859C215.388 138.266 214.185 138.469 212.779 138.469C209.107 138.469 206.521 137.203 205.021 134.672C203.537 132.125 202.795 129.133 202.795 125.695ZM209.732 125.695C209.732 128.195 210.052 130.188 210.693 131.672C211.349 133.141 212.732 133.875 214.841 133.875C216.013 133.875 217.013 133.219 217.841 131.906C218.685 130.578 219.107 128.859 219.107 126.75V124.641C219.107 122.531 218.685 120.82 217.841 119.508C217.013 118.18 216.013 117.516 214.841 117.516C212.732 117.516 211.349 118.258 210.693 119.742C210.052 121.211 209.732 123.195 209.732 125.695ZM231.552 136.359C230.787 135.812 230.576 135.227 230.92 134.602L232.115 132.422C232.537 131.641 233.193 131.547 234.084 132.141C234.974 132.734 236.021 133.172 237.224 133.453C238.443 133.734 239.552 133.875 240.552 133.875C241.255 133.875 241.912 133.805 242.521 133.664C243.13 133.523 243.646 133.25 244.068 132.844C244.49 132.438 244.701 131.844 244.701 131.062C244.701 130.594 244.576 130.195 244.326 129.867C244.076 129.539 243.755 129.289 243.365 129.117C242.974 128.945 242.56 128.805 242.123 128.695C241.545 128.555 240.709 128.32 239.615 127.992C238.537 127.664 237.498 127.281 236.498 126.844C235.67 126.484 234.857 125.984 234.06 125.344C233.279 124.688 232.701 123.961 232.326 123.164C231.966 122.367 231.787 121.383 231.787 120.211C231.787 118.633 232.24 117.25 233.146 116.062C234.068 114.875 235.255 114.055 236.709 113.602C238.162 113.148 239.974 112.922 242.146 112.922C243.615 112.922 245.045 113.133 246.435 113.555C247.826 113.977 248.818 114.375 249.412 114.75C250.349 115.344 250.584 115.977 250.115 116.648L248.685 118.734C248.248 119.359 247.545 119.406 246.576 118.875C245.841 118.469 245.115 118.141 244.396 117.891C243.693 117.641 242.904 117.516 242.029 117.516C241.435 117.516 240.865 117.578 240.318 117.703C239.771 117.828 239.302 118.062 238.912 118.406C238.537 118.75 238.349 119.203 238.349 119.766C238.349 120.359 238.521 120.828 238.865 121.172C239.224 121.5 239.63 121.742 240.084 121.898C240.552 122.055 240.998 122.203 241.42 122.344C242.295 122.625 243.177 122.898 244.068 123.164C244.959 123.414 245.865 123.719 246.787 124.078C247.584 124.391 248.357 124.836 249.107 125.414C249.857 125.992 250.404 126.727 250.748 127.617C251.091 128.508 251.263 129.523 251.263 130.664C251.263 132.18 250.81 133.586 249.904 134.883C248.998 136.18 247.802 137.102 246.318 137.648C244.834 138.195 243.107 138.469 241.138 138.469C238.935 138.469 237.06 138.312 235.513 138C233.966 137.688 232.646 137.141 231.552 136.359ZM254.31 125.695C254.31 121.742 255.295 118.625 257.263 116.344C259.248 114.062 262.045 112.922 265.654 112.922C269.841 112.922 272.951 114 274.982 116.156C277.013 118.312 278.029 121.781 278.029 126.562C278.029 127.5 277.591 127.969 276.716 127.969H261.248C261.498 130.562 262.138 132.195 263.17 132.867C264.201 133.539 265.396 133.875 266.755 133.875C268.052 133.875 269.045 133.703 269.732 133.359C270.42 133.016 270.998 132.547 271.466 131.953C271.998 131.266 272.654 131.156 273.435 131.625L275.779 133.055C276.701 133.617 276.834 134.289 276.177 135.07C275.224 136.211 274.107 137.062 272.826 137.625C271.545 138.188 269.521 138.469 266.755 138.469C262.271 138.469 259.076 137.328 257.17 135.047C255.263 132.766 254.31 129.648 254.31 125.695ZM261.271 123.281H271.466C271.466 121.594 271.045 120.219 270.201 119.156C269.357 118.078 268.013 117.539 266.17 117.539C264.701 117.539 263.537 118.055 262.677 119.086C261.818 120.102 261.349 121.5 261.271 123.281ZM282.318 118.078C281.396 118.078 280.935 117.688 280.935 116.906V114.562C280.935 113.781 281.396 113.391 282.318 113.391H283.912V112.57C283.912 111.867 284.076 111.227 284.404 110.648L286.209 107.484C286.552 106.891 286.959 106.594 287.427 106.594H289.068C290.005 106.594 290.474 107.062 290.474 108V113.391H294.271C295.193 113.391 295.654 113.781 295.654 114.562V116.906C295.654 117.688 295.193 118.078 294.271 118.078H290.474V129.703C290.474 131.297 290.584 132.445 290.802 133.148C291.037 133.836 291.63 134.18 292.584 134.18C293.068 134.18 293.615 134.102 294.224 133.945C294.834 133.773 295.31 133.609 295.654 133.453C296.201 133.203 296.56 133.383 296.732 133.992L297.435 136.664C297.576 137.195 297.373 137.586 296.826 137.836C296.31 138.07 295.599 138.281 294.693 138.469C293.802 138.672 292.904 138.773 291.998 138.773C289.763 138.773 287.857 138.312 286.279 137.391C284.701 136.469 283.912 134.57 283.912 131.695V118.078H282.318Z" fill="#1B4332"/>
<path d="M124.04 82V58.608H137.8V61.232H126.856V69.008H136.968V71.632H126.92V82H124.04ZM149.788 82.32C148.38 82.32 147.164 82.0533 146.14 81.52C145.137 80.9867 144.358 80.2187 143.804 79.216C143.27 78.192 143.004 76.9867 143.004 75.6V65.04C143.004 63.632 143.27 62.4267 143.804 61.424C144.358 60.4213 145.137 59.6533 146.14 59.12C147.164 58.5867 148.38 58.32 149.788 58.32C151.196 58.32 152.401 58.5867 153.404 59.12C154.428 59.6533 155.206 60.4213 155.74 61.424C156.294 62.4267 156.572 63.6213 156.572 65.008V75.6C156.572 76.9867 156.294 78.192 155.74 79.216C155.206 80.2187 154.428 80.9867 153.404 81.52C152.401 82.0533 151.196 82.32 149.788 82.32ZM149.788 79.728C151.046 79.728 152.006 79.376 152.668 78.672C153.35 77.9467 153.692 76.9227 153.692 75.6V65.04C153.692 63.7173 153.35 62.704 152.668 62C152.006 61.2747 151.046 60.912 149.788 60.912C148.55 60.912 147.59 61.2747 146.908 62C146.225 62.704 145.884 63.7173 145.884 65.04V75.6C145.884 76.9227 146.225 77.9467 146.908 78.672C147.59 79.376 148.55 79.728 149.788 79.728ZM162.319 82V58.64H169.551C170.938 58.64 172.154 58.928 173.199 59.504C174.244 60.0587 175.055 60.8373 175.631 61.84C176.207 62.8427 176.495 64.016 176.495 65.36C176.495 66.9387 176.079 68.2933 175.247 69.424C174.436 70.5547 173.327 71.3333 171.919 71.76L176.815 82H173.423L168.943 72.08H165.199V82H162.319ZM165.199 69.488H169.551C170.746 69.488 171.706 69.1147 172.431 68.368C173.156 67.6 173.519 66.5973 173.519 65.36C173.519 64.1013 173.156 63.0987 172.431 62.352C171.706 61.6053 170.746 61.232 169.551 61.232H165.199V69.488ZM180.995 82V58.64H184.771L187.203 66.192C187.437 66.8747 187.651 67.5573 187.843 68.24C188.035 68.9013 188.173 69.4133 188.259 69.776C188.365 69.4133 188.504 68.9013 188.675 68.24C188.845 67.5573 189.037 66.864 189.251 66.16L191.555 58.64H195.331V82H192.515V73.52C192.515 72.5813 192.547 71.5147 192.611 70.32C192.675 69.1253 192.76 67.9093 192.867 66.672C192.973 65.4133 193.08 64.2187 193.187 63.088C193.315 61.936 193.421 60.9333 193.507 60.08L189.731 71.76H186.691L182.883 60.08C182.989 60.912 183.096 61.8827 183.203 62.992C183.309 64.08 183.405 65.2427 183.491 66.48C183.576 67.696 183.651 68.912 183.715 70.128C183.779 71.344 183.811 72.4747 183.811 73.52V82H180.995ZM199.35 82L205.43 58.64H209.302L215.35 82H212.438L210.902 75.792H203.83L202.294 82H199.35ZM204.406 73.36H210.294L208.502 66.16C208.161 64.7947 207.894 63.6533 207.702 62.736C207.51 61.8187 207.393 61.2213 207.35 60.944C207.307 61.2213 207.19 61.8187 206.998 62.736C206.806 63.6533 206.539 64.784 206.198 66.128L204.406 73.36ZM223.658 88.496V86.736H225.898C226.367 86.736 226.74 86.608 227.018 86.352C227.316 86.1173 227.466 85.8613 227.466 85.584C227.466 85.2213 227.167 84.9013 226.57 84.624C225.994 84.3467 225.172 84.208 224.106 84.208L225.226 81.168H227.05L226.378 83.12C226.932 83.184 227.508 83.3227 228.106 83.536C228.703 83.7493 229.204 84.048 229.61 84.432C230.015 84.816 230.218 85.2853 230.218 85.84C230.218 86.5653 229.866 87.184 229.162 87.696C228.458 88.2293 227.53 88.496 226.378 88.496H223.658ZM226.666 82.32C225.258 82.32 224.031 82.0533 222.986 81.52C221.962 80.9867 221.162 80.2187 220.586 79.216C220.031 78.192 219.754 76.9867 219.754 75.6V65.04C219.754 63.632 220.031 62.4267 220.586 61.424C221.162 60.4213 221.962 59.6533 222.986 59.12C224.031 58.5867 225.258 58.32 226.666 58.32C228.074 58.32 229.29 58.5973 230.314 59.152C231.338 59.6853 232.127 60.4533 232.682 61.456C233.236 62.4587 233.514 63.6533 233.514 65.04H230.634C230.634 63.7173 230.282 62.704 229.578 62C228.895 61.2747 227.924 60.912 226.666 60.912C225.407 60.912 224.415 61.264 223.69 61.968C222.986 62.672 222.634 63.6853 222.634 65.008V75.6C222.634 76.9227 222.986 77.9467 223.69 78.672C224.415 79.376 225.407 79.728 226.666 79.728C227.924 79.728 228.895 79.376 229.578 78.672C230.282 77.9467 230.634 76.9227 230.634 75.6H233.514C233.514 76.9653 233.236 78.16 232.682 79.184C232.127 80.1867 231.338 80.9653 230.314 81.52C229.29 82.0533 228.074 82.32 226.666 82.32ZM237.725 82L243.805 58.64H247.677L253.725 82H250.813L249.277 75.792H242.205L240.669 82H237.725ZM242.781 73.36H248.669L246.877 66.16C246.536 64.7947 246.269 63.6533 246.077 62.736C245.885 61.8187 245.768 61.2213 245.725 60.944C245.682 61.2213 245.565 61.8187 245.373 62.736C245.181 63.6533 244.914 64.784 244.573 66.128L242.781 73.36ZM247.965 55.92C247.325 55.92 246.802 55.8133 246.397 55.6C245.992 55.3653 245.65 55.0987 245.373 54.8C245.096 54.5013 244.829 54.2453 244.573 54.032C244.317 53.7973 244.008 53.68 243.645 53.68C243.368 53.68 243.133 53.776 242.941 53.968C242.77 54.1387 242.685 54.416 242.685 54.8V55.76H240.605V54.8C240.605 53.84 240.872 53.0933 241.405 52.56C241.938 52.0267 242.632 51.76 243.485 51.76C244.125 51.76 244.648 51.8773 245.053 52.112C245.458 52.3253 245.8 52.5813 246.077 52.88C246.354 53.1787 246.621 53.4453 246.877 53.68C247.133 53.8933 247.442 54 247.805 54C248.104 54 248.338 53.9147 248.509 53.744C248.68 53.552 248.765 53.264 248.765 52.88V51.92H250.845V52.88C250.845 53.84 250.578 54.5867 250.045 55.12C249.533 55.6533 248.84 55.92 247.965 55.92ZM264.913 82.32C263.505 82.32 262.289 82.0533 261.265 81.52C260.262 80.9867 259.483 80.2187 258.929 79.216C258.395 78.192 258.129 76.9867 258.129 75.6V65.04C258.129 63.632 258.395 62.4267 258.929 61.424C259.483 60.4213 260.262 59.6533 261.265 59.12C262.289 58.5867 263.505 58.32 264.913 58.32C266.321 58.32 267.526 58.5867 268.529 59.12C269.553 59.6533 270.331 60.4213 270.865 61.424C271.419 62.4267 271.697 63.6213 271.697 65.008V75.6C271.697 76.9867 271.419 78.192 270.865 79.216C270.331 80.2187 269.553 80.9867 268.529 81.52C267.526 82.0533 266.321 82.32 264.913 82.32ZM264.913 79.728C266.171 79.728 267.131 79.376 267.793 78.672C268.475 77.9467 268.817 76.9227 268.817 75.6V65.04C268.817 63.7173 268.475 62.704 267.793 62C267.131 61.2747 266.171 60.912 264.913 60.912C263.675 60.912 262.715 61.2747 262.033 62C261.35 62.704 261.009 63.7173 261.009 65.04V75.6C261.009 76.9227 261.35 77.9467 262.033 78.672C262.715 79.376 263.675 79.728 264.913 79.728ZM296.632 82V58.64H302.68C304.194 58.64 305.496 58.928 306.584 59.504C307.693 60.08 308.546 60.8907 309.144 61.936C309.762 62.9813 310.072 64.2187 310.072 65.648V74.96C310.072 76.3893 309.762 77.6373 309.144 78.704C308.546 79.7493 307.693 80.56 306.584 81.136C305.496 81.712 304.194 82 302.68 82H296.632ZM299.512 79.44H302.68C304.088 79.44 305.186 79.0453 305.976 78.256C306.786 77.4667 307.192 76.368 307.192 74.96V65.648C307.192 64.2613 306.786 63.1733 305.976 62.384C305.186 61.5947 304.088 61.2 302.68 61.2H299.512V79.44ZM322.475 82.32C321.067 82.32 319.851 82.0533 318.827 81.52C317.824 80.9867 317.046 80.2187 316.491 79.216C315.958 78.192 315.691 76.9867 315.691 75.6V65.04C315.691 63.632 315.958 62.4267 316.491 61.424C317.046 60.4213 317.824 59.6533 318.827 59.12C319.851 58.5867 321.067 58.32 322.475 58.32C323.883 58.32 325.088 58.5867 326.091 59.12C327.115 59.6533 327.894 60.4213 328.427 61.424C328.982 62.4267 329.259 63.6213 329.259 65.008V75.6C329.259 76.9867 328.982 78.192 328.427 79.216C327.894 80.2187 327.115 80.9867 326.091 81.52C325.088 82.0533 323.883 82.32 322.475 82.32ZM322.475 79.728C323.734 79.728 324.694 79.376 325.355 78.672C326.038 77.9467 326.379 76.9227 326.379 75.6V65.04C326.379 63.7173 326.038 62.704 325.355 62C324.694 61.2747 323.734 60.912 322.475 60.912C321.238 60.912 320.278 61.2747 319.595 62C318.912 62.704 318.571 63.7173 318.571 65.04V75.6C318.571 76.9227 318.912 77.9467 319.595 78.672C320.278 79.376 321.238 79.728 322.475 79.728Z" fill="#1B4332"/>
<g clip-path="url(#clip0_32_27)">
<path d="M433.493 11.0919H486.236C487.193 11.0919 487.925 11.8237 487.925 12.7806V45.5974C487.925 46.5543 487.193 47.2861 486.236 47.2861H433.493C432.536 47.2861 431.804 46.5543 431.804 45.5974V12.7806C431.804 11.8237 432.536 11.0919 433.493 11.0919Z" fill="#9DBE87"/>
<path d="M486.236 48.4119H433.493C431.917 48.4119 430.678 47.1735 430.678 45.5974V12.7806C430.678 11.2045 431.917 9.96613 433.493 9.96613H486.236C487.812 9.96613 489.051 11.2045 489.051 12.7806V45.5974C489.051 47.1172 487.812 48.4119 486.236 48.4119ZM433.493 12.2177C433.155 12.2177 432.93 12.4429 432.93 12.7806V45.5974C432.93 45.9351 433.155 46.1603 433.493 46.1603H486.236C486.574 46.1603 486.799 45.9351 486.799 45.5974V12.7806C486.799 12.4429 486.574 12.2177 486.236 12.2177H433.493Z" fill="#131313"/>
<path d="M428.708 15.8765H481.508C482.465 15.8765 483.196 16.6083 483.196 17.5652V50.382C483.196 51.3389 482.465 52.0707 481.508 52.0707H428.708C427.751 52.0707 427.02 51.3389 427.02 50.382V17.5652C427.02 16.6083 427.751 15.8765 428.708 15.8765Z" fill="#9DBE87"/>
<path d="M481.451 53.1965H428.708C427.132 53.1965 425.894 51.9581 425.894 50.382V17.5652C425.894 15.9891 427.132 14.7507 428.708 14.7507H481.508C483.084 14.7507 484.322 15.9891 484.322 17.5652V50.382C484.266 51.9018 483.028 53.1965 481.451 53.1965ZM428.708 17.0023C428.37 17.0023 428.145 17.2275 428.145 17.5652V50.382C428.145 50.7197 428.37 50.9449 428.708 50.9449H481.508C481.846 50.9449 482.071 50.7197 482.071 50.382V17.5652C482.071 17.2275 481.846 17.0023 481.508 17.0023H428.708Z" fill="#131313"/>
<path d="M424.318 20.5485H477.117C478.074 20.5485 478.806 21.2803 478.806 22.2372V55.054C478.806 56.0109 478.074 56.7427 477.117 56.7427H424.318C423.361 56.7427 422.629 56.0109 422.629 55.054V22.2372C422.629 21.3366 423.361 20.5485 424.318 20.5485Z" fill="#9DBE87"/>
<path d="M477.117 57.8685H424.318C422.742 57.8685 421.503 56.6301 421.503 55.054V22.2372C421.503 20.6611 422.742 19.4227 424.318 19.4227H477.117C478.693 19.4227 479.932 20.6611 479.932 22.2372V55.054C479.932 56.5738 478.637 57.8685 477.117 57.8685ZM424.318 21.6743C423.98 21.6743 423.755 21.8995 423.755 22.2372V55.054C423.755 55.3917 423.98 55.6169 424.318 55.6169H477.117C477.455 55.6169 477.68 55.3917 477.68 55.054V22.2372C477.68 21.8995 477.455 21.6743 477.117 21.6743H424.318Z" fill="#131313"/>
<path d="M419.814 24.7139H472.614C473.571 24.7139 474.303 25.4457 474.303 26.4026V59.2194C474.303 60.1763 473.571 60.9081 472.614 60.9081H419.814C418.858 60.9081 418.126 60.1763 418.126 59.2194V26.4026C418.126 25.502 418.858 24.7139 419.814 24.7139Z" fill="#9DBE87"/>
<path d="M472.614 62.0339H419.814C418.238 62.0339 417 60.7955 417 59.2194V26.4026C417 24.8265 418.238 23.5881 419.814 23.5881H472.614C474.19 23.5881 475.429 24.8265 475.429 26.4026V59.2194C475.429 60.7955 474.134 62.0339 472.614 62.0339ZM419.814 25.8397C419.477 25.8397 419.252 26.0649 419.252 26.4026V59.2194C419.252 59.5571 419.477 59.7823 419.814 59.7823H472.614C472.952 59.7823 473.177 59.5571 473.177 59.2194V26.4026C473.177 26.0649 472.952 25.8397 472.614 25.8397H419.814Z" fill="#131313"/>
<path d="M465.522 55.8421H426.907C426.907 53.1964 424.712 51.0012 422.066 51.0012V34.0017C424.712 34.0017 426.907 31.8064 426.907 29.1608H465.522C465.522 31.8064 467.717 34.0017 470.362 34.0017V51.0012C467.661 51.0012 465.522 53.1964 465.522 55.8421Z" fill="#D6F0C5"/>
<path d="M465.522 56.9678H426.907C426.288 56.9678 425.781 56.4612 425.781 55.8421C425.781 53.8156 424.092 52.1269 422.066 52.1269C421.447 52.1269 420.94 51.6203 420.94 51.0012V34.0017C420.94 33.3825 421.447 32.8759 422.066 32.8759C424.092 32.8759 425.781 31.1872 425.781 29.1608C425.781 28.5416 426.288 28.035 426.907 28.035H465.522C466.141 28.035 466.647 28.5416 466.647 29.1608C466.647 31.1872 468.336 32.8759 470.362 32.8759C470.982 32.8759 471.488 33.3825 471.488 34.0017V51.0012C471.488 51.6203 470.982 52.1269 470.362 52.1269C468.336 52.1269 466.647 53.8156 466.647 55.8421C466.647 56.4612 466.141 56.9678 465.522 56.9678ZM427.92 54.7163H464.452C464.902 52.3521 466.816 50.4383 469.18 49.9879V35.0149C466.816 34.5646 464.902 32.6508 464.452 30.2866H427.92C427.47 32.6508 425.556 34.5646 423.192 35.0149V49.9317C425.556 50.4383 427.47 52.3521 427.92 54.7163Z" fill="#131313"/>
<path d="M446.327 50.1568C444.526 50.1568 442.612 49.4813 441.261 47.7363C440.867 47.2297 440.979 46.5543 441.43 46.1602C441.936 45.7662 442.612 45.8788 443.006 46.3291C444.357 48.0741 446.439 48.1304 447.79 47.6801C448.916 47.286 449.592 46.5543 449.592 45.7662C449.592 45.0345 447.847 44.5278 446.327 44.0775C443.963 43.3458 440.979 42.5014 440.979 39.6869C440.979 38.336 441.824 37.0976 443.287 36.3659C445.088 35.4652 448.128 35.1275 450.999 37.2102C451.505 37.6042 451.618 38.2797 451.224 38.7863C450.83 39.2929 450.155 39.4055 449.648 39.0115C447.734 37.6042 445.595 37.6605 444.3 38.336C443.625 38.6737 443.175 39.1803 443.175 39.6869C443.175 40.7564 444.751 41.2631 446.89 41.9385C449.198 42.614 451.731 43.4021 451.731 45.7662C451.731 47.5112 450.436 49.0873 448.41 49.8191C447.847 49.9879 447.059 50.1568 446.327 50.1568Z" fill="#131313"/>
<path d="M446.214 37.8857C445.595 37.8857 445.088 37.3791 445.088 36.7599V34.2832C445.088 33.664 445.595 33.1574 446.214 33.1574C446.833 33.1574 447.34 33.664 447.34 34.2832V36.7599C447.34 37.4354 446.833 37.8857 446.214 37.8857Z" fill="#131313"/>
<path d="M446.214 52.2958C445.595 52.2958 445.088 51.7892 445.088 51.1701V49.3125C445.088 48.6933 445.595 48.1867 446.214 48.1867C446.833 48.1867 447.34 48.6933 447.34 49.3125V51.1701C447.34 51.7892 446.833 52.2958 446.214 52.2958Z" fill="#131313"/>
<path d="M429.44 43.1769C429.44 43.4504 429.494 43.7212 429.599 43.9739C429.703 44.2266 429.857 44.4562 430.05 44.6496C430.243 44.843 430.473 44.9964 430.726 45.1011C430.978 45.2057 431.249 45.2596 431.523 45.2596C431.796 45.2596 432.067 45.2057 432.32 45.1011C432.572 44.9964 432.802 44.843 432.995 44.6496C433.189 44.4562 433.342 44.2266 433.447 43.9739C433.552 43.7212 433.605 43.4504 433.605 43.1769C433.605 42.6245 433.386 42.0948 432.995 41.7042C432.605 41.3136 432.075 41.0942 431.523 41.0942C430.97 41.0942 430.441 41.3136 430.05 41.7042C429.659 42.0948 429.44 42.6245 429.44 43.1769Z" fill="#AECD99"/>
<path d="M431.523 46.3291C429.778 46.3291 428.314 44.9219 428.314 43.1206C428.314 41.3193 429.721 39.9121 431.523 39.9121C433.268 39.9121 434.731 41.3193 434.731 43.1206C434.731 44.9219 433.268 46.3291 431.523 46.3291ZM431.523 42.22C431.016 42.22 430.566 42.614 430.566 43.1769C430.566 43.7398 430.96 44.1338 431.523 44.1338C432.029 44.1338 432.48 43.7398 432.48 43.1769C432.48 42.614 432.029 42.22 431.523 42.22Z" fill="#131313"/>
<path d="M458.936 43.1769C458.936 43.7293 459.155 44.259 459.546 44.6496C459.936 45.0402 460.466 45.2596 461.018 45.2596C461.571 45.2596 462.1 45.0402 462.491 44.6496C462.882 44.259 463.101 43.7293 463.101 43.1769C463.101 42.6245 462.882 42.0948 462.491 41.7042C462.1 41.3136 461.571 41.0942 461.018 41.0942C460.466 41.0942 459.936 41.3136 459.546 41.7042C459.155 42.0948 458.936 42.6245 458.936 43.1769Z" fill="#AECD99"/>
<path d="M461.018 46.3291C459.273 46.3291 457.81 44.9219 457.81 43.1206C457.81 41.3193 459.217 39.9121 461.018 39.9121C462.763 39.9121 464.227 41.3193 464.227 43.1206C464.227 44.9219 462.763 46.3291 461.018 46.3291ZM461.018 42.22C460.512 42.22 460.061 42.614 460.061 43.1769C460.061 43.7398 460.456 44.1338 461.018 44.1338C461.581 44.1338 461.975 43.7398 461.975 43.1769C461.975 42.614 461.525 42.22 461.018 42.22Z" fill="#131313"/>
</g>
<defs>
<clipPath id="clip0_32_27">
<rect width="72" height="72" fill="white" transform="translate(417)"/>
</clipPath>
</defs>
</svg>
