<svg width="511" height="131" viewBox="0 0 511 131" fill="none" xmlns="http://www.w3.org/2000/svg">
<path d="M122.156 110C121.375 110 120.984 109.57 120.984 108.711V77.6797C120.984 76.8203 121.375 76.3906 122.156 76.3906H127.148C127.742 76.3906 128.188 76.8594 128.484 77.7969L135.188 98.8203C135.875 100.977 136.281 102.281 136.406 102.734C136.531 103.172 136.711 103.984 136.945 105.172H137.086C137.32 103.984 137.5 103.172 137.625 102.734C137.75 102.281 138.156 100.977 138.844 98.8203L145.547 77.7969C145.844 76.8594 146.289 76.3906 146.883 76.3906H151.875C152.656 76.3906 153.047 76.8203 153.047 77.6797V108.711C153.047 109.57 152.656 110 151.875 110H149.719C148.938 110 148.547 109.57 148.547 108.711V84.125C148.547 83.5 148.562 82.875 148.594 82.25H148.5L139.852 108.57C139.539 109.523 139.023 110 138.305 110H135.727C135.008 110 134.492 109.523 134.18 108.57L125.531 82.25H125.438C125.469 82.875 125.484 83.5 125.484 84.125V108.711C125.484 109.57 125.094 110 124.312 110H122.156ZM161.414 110C160.711 110 160.359 109.648 160.359 108.945V86.4453C160.359 85.7422 160.711 85.3906 161.414 85.3906H163.43C164.133 85.3906 164.484 85.7422 164.484 86.4453V108.945C164.484 109.648 164.133 110 163.43 110H161.414ZM161.414 80.9375C160.711 80.9375 160.359 80.5859 160.359 79.8828V77.8672C160.359 77.1641 160.711 76.8125 161.414 76.8125H163.43C164.133 76.8125 164.484 77.1641 164.484 77.8672V79.8828C164.484 80.5859 164.133 80.9375 163.43 80.9375H161.414ZM172.195 110C171.492 110 171.141 109.648 171.141 108.945V86.4453C171.141 85.7422 171.492 85.3906 172.195 85.3906H174.164C174.867 85.3906 175.219 85.7422 175.219 86.4453V88.3203H175.312C176.328 87.1953 177.422 86.3594 178.594 85.8125C179.766 85.2656 181.227 84.9922 182.977 84.9922C185.82 84.9922 187.859 85.7969 189.094 87.4062C190.344 89 190.969 91.1875 190.969 93.9688V108.945C190.969 109.648 190.617 110 189.914 110H187.898C187.195 110 186.844 109.648 186.844 108.945V95.0938C186.844 92.0312 186.336 90.0938 185.32 89.2812C184.305 88.4531 183.016 88.0391 181.453 88.0391C179.422 88.0391 177.883 88.6484 176.836 89.8672C175.789 91.0703 175.266 93.1406 175.266 96.0781V108.945C175.266 109.648 174.914 110 174.211 110H172.195ZM196.242 97.6953C196.242 94.3359 197.055 91.3828 198.68 88.8359C200.305 86.2734 202.68 84.9922 205.805 84.9922C207.602 84.9922 209.039 85.2891 210.117 85.8828C211.195 86.4766 212.164 87.2891 213.023 88.3203H213.07C213.039 87.8516 213.023 87.375 213.023 86.8906V76.4609C213.023 75.7578 213.375 75.4062 214.078 75.4062H216.094C216.797 75.4062 217.148 75.7578 217.148 76.4609V108.945C217.148 109.648 216.797 110 216.094 110H214.125C213.562 110 213.258 109.648 213.211 108.945L213.07 107.07H213.023C212.164 108.102 211.195 108.914 210.117 109.508C209.039 110.102 207.602 110.398 205.805 110.398C202.68 110.398 200.305 109.125 198.68 106.578C197.055 104.016 196.242 101.055 196.242 97.6953ZM200.602 97.6953C200.602 100.57 201.094 102.898 202.078 104.68C203.078 106.461 204.766 107.352 207.141 107.352C208.828 107.352 210.227 106.781 211.336 105.641C212.461 104.484 213.023 102.734 213.023 100.391V95C213.023 92.6562 212.461 90.9141 211.336 89.7734C210.227 88.6172 208.828 88.0391 207.141 88.0391C204.766 88.0391 203.078 88.9297 202.078 90.7109C201.094 92.4922 200.602 94.8203 200.602 97.6953ZM222.867 107.703C222.383 107.25 222.281 106.828 222.562 106.438L223.617 104.961C223.961 104.492 224.469 104.516 225.141 105.031C226.062 105.734 227.086 106.297 228.211 106.719C229.352 107.141 230.648 107.352 232.102 107.352C232.961 107.352 233.727 107.25 234.398 107.047C235.07 106.828 235.656 106.43 236.156 105.852C236.672 105.273 236.93 104.5 236.93 103.531C236.93 102.969 236.805 102.438 236.555 101.938C236.32 101.438 235.945 101.039 235.43 100.742C234.93 100.43 234.438 100.188 233.953 100.016C233.156 99.7188 232.359 99.4766 231.562 99.2891C230.781 99.0859 229.75 98.7812 228.469 98.375C227.609 98.1094 226.797 97.7344 226.031 97.25C225.266 96.75 224.594 96.0781 224.016 95.2344C223.453 94.3906 223.172 93.2266 223.172 91.7422C223.172 90.2266 223.633 88.9219 224.555 87.8281C225.477 86.7344 226.633 85.9922 228.023 85.6016C229.414 85.1953 230.766 84.9922 232.078 84.9922C234.016 84.9922 235.57 85.2188 236.742 85.6719C237.93 86.1094 238.953 86.6328 239.812 87.2422C240.312 87.6016 240.383 88.0156 240.023 88.4844L238.969 89.8906C238.641 90.3438 238.133 90.3281 237.445 89.8438C236.867 89.4375 236.047 89.0547 234.984 88.6953C233.922 88.3359 232.992 88.1562 232.195 88.1562C231.211 88.1562 230.367 88.2656 229.664 88.4844C228.961 88.7031 228.391 89.0781 227.953 89.6094C227.516 90.1406 227.297 90.7656 227.297 91.4844C227.297 92.0312 227.383 92.5234 227.555 92.9609C227.727 93.3828 228.047 93.7734 228.516 94.1328C228.984 94.4922 229.641 94.7812 230.484 95C231.797 95.3438 232.992 95.6562 234.07 95.9375C235.164 96.2188 236.148 96.5625 237.023 96.9688C238.164 97.5 239.039 98.0859 239.648 98.7266C240.273 99.3672 240.703 100.062 240.938 100.812C241.172 101.547 241.289 102.367 241.289 103.273C241.289 104.945 240.789 106.359 239.789 107.516C238.805 108.672 237.703 109.445 236.484 109.836C235.266 110.211 233.797 110.398 232.078 110.398C229.75 110.398 227.75 110.07 226.078 109.414C224.422 108.742 223.352 108.172 222.867 107.703ZM244.617 97.6953C244.617 93.8203 245.586 90.7344 247.523 88.4375C249.461 86.1406 252.234 84.9922 255.844 84.9922C258.844 84.9922 261.328 86.0469 263.297 88.1562C265.281 90.25 266.273 93.6016 266.273 98.2109C266.273 98.9141 265.953 99.2656 265.312 99.2656H248.977C249.242 102.281 250.055 104.383 251.414 105.57C252.773 106.742 254.312 107.328 256.031 107.328C257.844 107.328 259.234 107.023 260.203 106.414C261.172 105.805 261.883 105.203 262.336 104.609C262.836 103.953 263.32 103.828 263.789 104.234L265.172 105.43C265.531 105.742 265.531 106.172 265.172 106.719C264.875 107.172 264.023 107.898 262.617 108.898C261.227 109.898 259.031 110.398 256.031 110.398C252.125 110.398 249.242 109.25 247.383 106.953C245.539 104.656 244.617 101.57 244.617 97.6953ZM248.883 96.2188H262.125C262.062 94.0312 261.5 92.1172 260.438 90.4766C259.375 88.8203 257.812 87.9922 255.75 87.9922C253.938 87.9922 252.398 88.6016 251.133 89.8203C249.867 91.0234 249.117 93.1562 248.883 96.2188ZM270.492 88.4844C269.789 88.4844 269.438 88.2109 269.438 87.6641V86.2109C269.438 85.6641 269.789 85.3906 270.492 85.3906H273.258V83.2812C273.258 82.9688 273.336 82.6719 273.492 82.3906L275.133 79.4141C275.43 78.8672 275.672 78.5938 275.859 78.5938H276.68C277.148 78.5938 277.383 78.8672 277.383 79.4141V85.3906H282.375C283.078 85.3906 283.43 85.6641 283.43 86.2109V87.6641C283.43 88.2109 283.078 88.4844 282.375 88.4844H277.383V103.414C277.383 105.055 277.625 106.125 278.109 106.625C278.609 107.109 279.203 107.352 279.891 107.352C280.422 107.352 281.055 107.195 281.789 106.883C282.539 106.57 283.055 106.305 283.336 106.086C283.617 105.867 283.836 105.938 283.992 106.297L284.766 108.102C284.891 108.414 284.797 108.664 284.484 108.852C283.875 109.211 282.984 109.562 281.812 109.906C280.641 110.234 279.469 110.398 278.297 110.398C276.672 110.398 275.422 109.812 274.547 108.641C273.688 107.469 273.258 105.812 273.258 103.672V88.4844H270.492ZM307.266 110C306.484 110 306.094 109.57 306.094 108.711V77.6797C306.094 76.8203 306.484 76.3906 307.266 76.3906H309.422C310.203 76.3906 310.594 76.8203 310.594 77.6797V108.711C310.594 109.57 310.203 110 309.422 110H307.266ZM318.961 110C318.258 110 317.906 109.648 317.906 108.945V86.4453C317.906 85.7422 318.258 85.3906 318.961 85.3906H320.93C321.633 85.3906 321.984 85.7422 321.984 86.4453V88.3203H322.078C323.094 87.1953 324.188 86.3594 325.359 85.8125C326.531 85.2656 327.992 84.9922 329.742 84.9922C332.586 84.9922 334.625 85.7969 335.859 87.4062C337.109 89 337.734 91.1875 337.734 93.9688V108.945C337.734 109.648 337.383 110 336.68 110H334.664C333.961 110 333.609 109.648 333.609 108.945V95.0938C333.609 92.0312 333.102 90.0938 332.086 89.2812C331.07 88.4531 329.781 88.0391 328.219 88.0391C326.188 88.0391 324.648 88.6484 323.602 89.8672C322.555 91.0703 322.031 93.1406 322.031 96.0781V108.945C322.031 109.648 321.68 110 320.977 110H318.961ZM342.469 86.5391C342.203 85.7734 342.414 85.3906 343.102 85.3906H345.656C346.156 85.3906 346.508 85.6953 346.711 86.3047L351.68 101.773C352.086 103.039 352.359 103.914 352.5 104.398C352.656 104.867 352.797 105.453 352.922 106.156H353.016C353.141 105.453 353.273 104.867 353.414 104.398C353.57 103.914 353.852 103.039 354.258 101.773L359.227 86.3047C359.43 85.6953 359.781 85.3906 360.281 85.3906H362.836C363.523 85.3906 363.734 85.7734 363.469 86.5391L355.781 108.57C355.453 109.523 355.031 110 354.516 110H351.422C350.906 110 350.484 109.523 350.156 108.57L342.469 86.5391ZM366.117 97.6953C366.117 93.8203 367.086 90.7344 369.023 88.4375C370.961 86.1406 373.734 84.9922 377.344 84.9922C380.344 84.9922 382.828 86.0469 384.797 88.1562C386.781 90.25 387.773 93.6016 387.773 98.2109C387.773 98.9141 387.453 99.2656 386.812 99.2656H370.477C370.742 102.281 371.555 104.383 372.914 105.57C374.273 106.742 375.812 107.328 377.531 107.328C379.344 107.328 380.734 107.023 381.703 106.414C382.672 105.805 383.383 105.203 383.836 104.609C384.336 103.953 384.82 103.828 385.289 104.234L386.672 105.43C387.031 105.742 387.031 106.172 386.672 106.719C386.375 107.172 385.523 107.898 384.117 108.898C382.727 109.898 380.531 110.398 377.531 110.398C373.625 110.398 370.742 109.25 368.883 106.953C367.039 104.656 366.117 101.57 366.117 97.6953ZM370.383 96.2188H383.625C383.562 94.0312 383 92.1172 381.938 90.4766C380.875 88.8203 379.312 87.9922 377.25 87.9922C375.438 87.9922 373.898 88.6016 372.633 89.8203C371.367 91.0234 370.617 93.1562 370.383 96.2188ZM392.227 107.703C391.742 107.25 391.641 106.828 391.922 106.438L392.977 104.961C393.32 104.492 393.828 104.516 394.5 105.031C395.422 105.734 396.445 106.297 397.57 106.719C398.711 107.141 400.008 107.352 401.461 107.352C402.32 107.352 403.086 107.25 403.758 107.047C404.43 106.828 405.016 106.43 405.516 105.852C406.031 105.273 406.289 104.5 406.289 103.531C406.289 102.969 406.164 102.438 405.914 101.938C405.68 101.438 405.305 101.039 404.789 100.742C404.289 100.43 403.797 100.188 403.312 100.016C402.516 99.7188 401.719 99.4766 400.922 99.2891C400.141 99.0859 399.109 98.7812 397.828 98.375C396.969 98.1094 396.156 97.7344 395.391 97.25C394.625 96.75 393.953 96.0781 393.375 95.2344C392.812 94.3906 392.531 93.2266 392.531 91.7422C392.531 90.2266 392.992 88.9219 393.914 87.8281C394.836 86.7344 395.992 85.9922 397.383 85.6016C398.773 85.1953 400.125 84.9922 401.438 84.9922C403.375 84.9922 404.93 85.2188 406.102 85.6719C407.289 86.1094 408.312 86.6328 409.172 87.2422C409.672 87.6016 409.742 88.0156 409.383 88.4844L408.328 89.8906C408 90.3438 407.492 90.3281 406.805 89.8438C406.227 89.4375 405.406 89.0547 404.344 88.6953C403.281 88.3359 402.352 88.1562 401.555 88.1562C400.57 88.1562 399.727 88.2656 399.023 88.4844C398.32 88.7031 397.75 89.0781 397.312 89.6094C396.875 90.1406 396.656 90.7656 396.656 91.4844C396.656 92.0312 396.742 92.5234 396.914 92.9609C397.086 93.3828 397.406 93.7734 397.875 94.1328C398.344 94.4922 399 94.7812 399.844 95C401.156 95.3438 402.352 95.6562 403.43 95.9375C404.523 96.2188 405.508 96.5625 406.383 96.9688C407.523 97.5 408.398 98.0859 409.008 98.7266C409.633 99.3672 410.062 100.062 410.297 100.812C410.531 101.547 410.648 102.367 410.648 103.273C410.648 104.945 410.148 106.359 409.148 107.516C408.164 108.672 407.062 109.445 405.844 109.836C404.625 110.211 403.156 110.398 401.438 110.398C399.109 110.398 397.109 110.07 395.438 109.414C393.781 108.742 392.711 108.172 392.227 107.703ZM414.117 88.4844C413.414 88.4844 413.062 88.2109 413.062 87.6641V86.2109C413.062 85.6641 413.414 85.3906 414.117 85.3906H416.883V83.2812C416.883 82.9688 416.961 82.6719 417.117 82.3906L418.758 79.4141C419.055 78.8672 419.297 78.5938 419.484 78.5938H420.305C420.773 78.5938 421.008 78.8672 421.008 79.4141V85.3906H426C426.703 85.3906 427.055 85.6641 427.055 86.2109V87.6641C427.055 88.2109 426.703 88.4844 426 88.4844H421.008V103.414C421.008 105.055 421.25 106.125 421.734 106.625C422.234 107.109 422.828 107.352 423.516 107.352C424.047 107.352 424.68 107.195 425.414 106.883C426.164 106.57 426.68 106.305 426.961 106.086C427.242 105.867 427.461 105.938 427.617 106.297L428.391 108.102C428.516 108.414 428.422 108.664 428.109 108.852C427.5 109.211 426.609 109.562 425.438 109.906C424.266 110.234 423.094 110.398 421.922 110.398C420.297 110.398 419.047 109.812 418.172 108.641C417.312 107.469 416.883 105.812 416.883 103.672V88.4844H414.117ZM434.133 110C433.43 110 433.078 109.648 433.078 108.945V86.4453C433.078 85.7422 433.43 85.3906 434.133 85.3906H436.148C436.852 85.3906 437.203 85.7422 437.203 86.4453V108.945C437.203 109.648 436.852 110 436.148 110H434.133ZM434.133 80.9375C433.43 80.9375 433.078 80.5859 433.078 79.8828V77.8672C433.078 77.1641 433.43 76.8125 434.133 76.8125H436.148C436.852 76.8125 437.203 77.1641 437.203 77.8672V79.8828C437.203 80.5859 436.852 80.9375 436.148 80.9375H434.133ZM442.523 97.6953C442.523 94.3359 443.336 91.3828 444.961 88.8359C446.586 86.2734 448.961 84.9922 452.086 84.9922C453.883 84.9922 455.32 85.2891 456.398 85.8828C457.477 86.4766 458.445 87.2891 459.305 88.3203H459.352C459.32 87.8516 459.305 87.375 459.305 86.8906V76.4609C459.305 75.7578 459.656 75.4062 460.359 75.4062H462.375C463.078 75.4062 463.43 75.7578 463.43 76.4609V108.945C463.43 109.648 463.078 110 462.375 110H460.406C459.844 110 459.539 109.648 459.492 108.945L459.352 107.07H459.305C458.445 108.102 457.477 108.914 456.398 109.508C455.32 110.102 453.883 110.398 452.086 110.398C448.961 110.398 446.586 109.125 444.961 106.578C443.336 104.016 442.523 101.055 442.523 97.6953ZM446.883 97.6953C446.883 100.57 447.375 102.898 448.359 104.68C449.359 106.461 451.047 107.352 453.422 107.352C455.109 107.352 456.508 106.781 457.617 105.641C458.742 104.484 459.305 102.734 459.305 100.391V95C459.305 92.6562 458.742 90.9141 457.617 89.7734C456.508 88.6172 455.109 88.0391 453.422 88.0391C451.047 88.0391 449.359 88.9297 448.359 90.7109C447.375 92.4922 446.883 94.8203 446.883 97.6953ZM468.773 97.6953C468.773 94.0234 469.742 90.9922 471.68 88.6016C473.633 86.1953 476.484 84.9922 480.234 84.9922C483.984 84.9922 486.828 86.1953 488.766 88.6016C490.719 90.9922 491.695 94.0234 491.695 97.6953C491.695 101.367 490.719 104.406 488.766 106.812C486.828 109.203 483.984 110.398 480.234 110.398C476.484 110.398 473.633 109.203 471.68 106.812C469.742 104.406 468.773 101.367 468.773 97.6953ZM473.133 97.6953C473.133 100.977 473.781 103.406 475.078 104.984C476.375 106.562 478.094 107.352 480.234 107.352C482.375 107.352 484.094 106.562 485.391 104.984C486.688 103.406 487.336 100.977 487.336 97.6953C487.336 94.4141 486.688 91.9844 485.391 90.4062C484.094 88.8281 482.375 88.0391 480.234 88.0391C478.094 88.0391 476.375 88.8281 475.078 90.4062C473.781 91.9844 473.133 94.4141 473.133 97.6953ZM498.07 110C497.367 110 497.016 109.648 497.016 108.945V86.4453C497.016 85.7422 497.367 85.3906 498.07 85.3906H500.039C500.742 85.3906 501.094 85.7422 501.094 86.4453V89.2578H501.188C501.938 87.8516 502.82 86.7891 503.836 86.0703C504.852 85.3516 506.117 84.9922 507.633 84.9922C508.633 84.9922 509.336 85.0781 509.742 85.25C510.102 85.3906 510.234 85.625 510.141 85.9531L509.602 87.875C509.523 88.1562 509.32 88.2656 508.992 88.2031C508.445 88.0938 507.93 88.0391 507.445 88.0391C505.617 88.0391 504.109 88.8672 502.922 90.5234C501.734 92.1641 501.141 94.4062 501.141 97.25V108.945C501.141 109.648 500.789 110 500.086 110H498.07Z" fill="#1B4332"/>
<path d="M98.4234 71.9563L90.0281 49.85C90.0281 49.85 89.1422 41.075 88.3406 37.7C84.8391 22.5969 67.9641 8.84375 49.6547 8.84375C27.3797 8.88594 9.32344 26.9844 9.32344 49.2594C9.32344 61.6203 15.0188 73.3062 24.7219 80.9422V111.553H67.7531V103.681V97.5765C76.5281 97.5765 89.9859 96.5516 89.9859 87.7766V76.4703H95.3438C97.1578 76.4703 98.6344 74.9938 98.6344 73.1797C98.6766 72.7578 98.5922 72.3781 98.4234 71.9563ZM49.4859 69.3828C37.2516 69.3828 27.3375 59.4688 27.3375 47.2344C27.3375 35 37.2516 25.0859 49.4859 25.0859C61.7203 25.0859 71.5922 35 71.6344 47.2344C71.6766 59.4266 61.8047 69.3406 49.6125 69.3828C49.5281 69.3828 49.5281 69.3828 49.4859 69.3828ZM51.5953 45.0828C48.5578 43.8172 47.1234 43.2688 47.1234 41.7078C47.1234 40.6109 48.3469 39.4719 50.5828 39.4719C52.2703 39.5141 53.9578 39.8937 55.4766 40.5687L56.7 36.2234C54.9281 35.3375 52.9453 34.9156 50.9625 34.9578V31.4984H47.8828V35.1688C43.7906 36.0125 41.5547 38.6281 41.5547 42.0031C41.5547 45.6734 44.0859 47.6984 48.1359 49.1328C51.0469 50.2719 52.2703 50.9047 52.2703 52.4234C52.2703 53.9422 51.0469 55.0813 48.4734 55.0813C46.3641 55.0391 44.3391 54.4906 42.4828 53.5625L41.3859 58.0344C42.6938 58.7516 45.3516 59.4688 47.9672 59.4688V62.8438H51.0469V59.3844C55.5188 58.3719 57.6281 55.7563 57.6281 52.2547C57.6281 48.7531 55.7719 46.6016 51.5953 45.0828Z" fill="#2D6A4F"/>
<path d="M121.04 43V17.88H136.32V20.56H124.16V28.92H135.48V31.6H124.16V43H121.04ZM150.897 43.48C148.817 43.48 146.957 43 145.317 42.04C143.677 41.08 142.383 39.64 141.437 37.72C140.49 35.7867 140.017 33.3733 140.017 30.48C140.017 27.5467 140.49 25.12 141.437 23.2C142.383 21.2667 143.677 19.8267 145.317 18.88C146.957 17.92 148.817 17.44 150.897 17.44C152.977 17.44 154.837 17.92 156.477 18.88C158.117 19.84 159.41 21.2867 160.357 23.22C161.303 25.1533 161.777 27.5733 161.777 30.48C161.777 33.4 161.303 35.8267 160.357 37.76C159.41 39.68 158.117 41.1133 156.477 42.06C154.837 43.0067 152.977 43.48 150.897 43.48ZM150.897 40.6C153.257 40.6 155.117 39.74 156.477 38.02C157.85 36.3 158.537 33.7733 158.537 30.44C158.537 27.1733 157.85 24.66 156.477 22.9C155.117 21.1267 153.257 20.24 150.897 20.24C148.563 20.24 146.703 21.1267 145.317 22.9C143.943 24.6733 143.257 27.2 143.257 30.48C143.257 33.8 143.943 36.32 145.317 38.04C146.703 39.7467 148.563 40.6 150.897 40.6ZM167.837 43V17.88H176.597C179.464 17.88 181.63 18.5667 183.097 19.94C184.577 21.3 185.317 23.0933 185.317 25.32C185.317 27.52 184.577 29.3067 183.097 30.68C181.63 32.04 179.464 32.72 176.597 32.72H170.957V43H167.837ZM181.917 43L174.717 31.6H178.117L185.957 43H181.917ZM170.957 30.52H176.357C178.237 30.52 179.664 30.06 180.637 29.14C181.624 28.2067 182.117 27 182.117 25.52C182.117 24 181.644 22.7933 180.697 21.9C179.764 21.0067 178.397 20.56 176.597 20.56H170.957V30.52ZM192.329 17.88H196.809L205.449 35.24H205.129L213.769 17.88H218.129V43H214.969V21.12H215.529L206.329 39.84H204.249L195.089 21.24H195.449V43H192.329V17.88ZM223.196 43L231.836 17.88H235.636L244.076 43H240.796L238.676 36.56H228.676L226.476 43H223.196ZM229.476 34.12H237.876L233.676 21.68L229.476 34.12ZM257.885 43.48C255.672 43.48 253.765 42.9267 252.165 41.82C250.565 40.7 249.332 39.1533 248.465 37.18C247.598 35.1933 247.165 32.8933 247.165 30.28C247.165 27.4933 247.632 25.1467 248.565 23.24C249.512 21.3333 250.792 19.8933 252.405 18.92C254.032 17.9333 255.858 17.44 257.885 17.44C260.565 17.44 262.718 18.1133 264.345 19.46C265.985 20.7933 267.112 22.5333 267.725 24.68L264.365 25.36C263.845 23.8 263.012 22.56 261.865 21.64C260.732 20.7067 259.405 20.24 257.885 20.24C256.565 20.24 255.345 20.62 254.225 21.38C253.118 22.1267 252.225 23.2467 251.545 24.74C250.865 26.2333 250.525 28.08 250.525 30.28C250.525 32.28 250.792 34.06 251.325 35.62C251.872 37.18 252.685 38.4067 253.765 39.3C254.858 40.1933 256.232 40.64 257.885 40.64C259.872 40.64 261.445 40.1067 262.605 39.04C263.778 37.9733 264.365 36.5733 264.365 34.84H267.765C267.765 36.64 267.352 38.1867 266.525 39.48C265.698 40.76 264.538 41.7467 263.045 42.44C261.565 43.1333 259.845 43.48 257.885 43.48ZM254.145 50.12L254.685 48.8C255.672 49.32 256.558 49.6133 257.345 49.68C258.132 49.76 258.758 49.6667 259.225 49.4C259.705 49.1333 259.965 48.7667 260.005 48.3C260.045 47.8333 259.865 47.4267 259.465 47.08C259.078 46.7333 258.578 46.44 257.965 46.2C257.352 45.96 256.718 45.7667 256.065 45.62L257.485 41.88L259.265 42.04L257.925 45.54L257.205 44.4C258.405 44.6667 259.412 44.9933 260.225 45.38C261.038 45.7667 261.645 46.2133 262.045 46.72C262.445 47.2267 262.618 47.8 262.565 48.44C262.512 49.2 262.185 49.8067 261.585 50.26C260.998 50.7267 260.265 51.0267 259.385 51.16C258.505 51.3067 257.598 51.2933 256.665 51.12C255.732 50.9467 254.892 50.6133 254.145 50.12ZM270.696 43L279.336 17.88H283.136L291.576 43H288.296L286.176 36.56H276.176L273.976 43H270.696ZM276.976 34.12H285.376L281.176 21.68L276.976 34.12ZM276.256 14.78L274.976 13.96C275.296 12.6267 275.763 11.6067 276.376 10.9C277.003 10.1933 277.723 9.84 278.536 9.84C278.883 9.84 279.243 9.90666 279.616 10.04C280.003 10.16 280.616 10.44 281.456 10.88C282.283 11.3067 282.856 11.5867 283.176 11.72C283.496 11.8533 283.803 11.92 284.096 11.92C284.483 11.92 284.863 11.7533 285.236 11.42C285.61 11.0867 285.936 10.56 286.216 9.84L287.576 10.76C287.376 11.6 287.096 12.32 286.736 12.92C286.39 13.52 285.99 13.98 285.536 14.3C285.096 14.62 284.643 14.78 284.176 14.78C283.776 14.78 283.35 14.7 282.896 14.54C282.456 14.3667 281.803 14.06 280.936 13.62C280.203 13.2333 279.69 12.9867 279.396 12.88C279.103 12.76 278.816 12.7 278.536 12.7C278.123 12.7 277.723 12.8533 277.336 13.16C276.963 13.4533 276.603 13.9933 276.256 14.78ZM305.545 43.48C303.465 43.48 301.605 43 299.965 42.04C298.325 41.08 297.032 39.64 296.085 37.72C295.138 35.7867 294.665 33.3733 294.665 30.48C294.665 27.5467 295.138 25.12 296.085 23.2C297.032 21.2667 298.325 19.8267 299.965 18.88C301.605 17.92 303.465 17.44 305.545 17.44C307.625 17.44 309.485 17.92 311.125 18.88C312.765 19.84 314.058 21.2867 315.005 23.22C315.952 25.1533 316.425 27.5733 316.425 30.48C316.425 33.4 315.952 35.8267 315.005 37.76C314.058 39.68 312.765 41.1133 311.125 42.06C309.485 43.0067 307.625 43.48 305.545 43.48ZM305.545 40.6C307.905 40.6 309.765 39.74 311.125 38.02C312.498 36.3 313.185 33.7733 313.185 30.44C313.185 27.1733 312.498 24.66 311.125 22.9C309.765 21.1267 307.905 20.24 305.545 20.24C303.212 20.24 301.352 21.1267 299.965 22.9C298.592 24.6733 297.905 27.2 297.905 30.48C297.905 33.8 298.592 36.32 299.965 38.04C301.352 39.7467 303.212 40.6 305.545 40.6Z" fill="#2D6A4F"/>
<line x1="120" y1="61.5" x2="409" y2="61.5" stroke="#52B788"/>
<path d="M368.543 1.24912C364.99 -0.416374 361.009 -0.416374 357.457 1.24912L340.729 9.09146C338.039 10.3526 337.338 13.9088 338.625 16.3666V28.75C338.625 29.7855 339.464 30.625 340.5 30.625C341.536 30.625 342.375 29.7855 342.375 28.75V19.18L357.457 26.2507C361.009 27.9162 364.991 27.9162 368.543 26.2507L385.271 18.4085C388.91 16.7026 388.91 10.7975 385.271 9.09159L368.543 1.24912Z" fill="#40916C"/>
<path d="M345.5 23.25V32.5267C345.5 35.0467 346.759 37.4062 348.963 38.6272C352.634 40.66 358.51 43.4632 363 43.4632C367.49 43.4632 373.366 40.66 377.037 38.6272C379.241 37.4062 380.5 35.0467 380.5 32.5267V23.2503L370.135 28.1095C365.574 30.2477 360.426 30.2477 355.865 28.1095L345.5 23.25Z" fill="#52B788"/>
</svg>
