<svg width="77" height="85" viewBox="0 0 77 85" fill="none" xmlns="http://www.w3.org/2000/svg">
<path d="M76.8089 52.2306L68.117 33.4471C68.117 33.4471 67.691 26.2931 67 23.5C63.9815 11.001 50.5513 0 34.7677 0C15.5654 0.0349135 0 15.0128 0 33.4471C0 43.6768 4.90966 53.3478 13.2743 59.6672V85H50.3695V78.4855V73.4334C57.5 69.5 69.5717 73.4334 69.5353 65.3232V55.9663H74.154C75.7179 55.9663 76.9907 54.7444 76.9907 53.2431C77.0271 52.8939 76.9544 52.5797 76.8089 52.2306ZM34.6222 50.1009C24.0755 50.1009 15.5291 41.8962 15.5291 31.7713C15.5291 21.6464 24.0755 13.4417 34.6222 13.4417C45.1689 13.4417 53.6789 21.6464 53.7153 31.7713C53.7517 41.8613 45.2416 50.066 34.7313 50.1009C34.6586 50.1009 34.6586 50.1009 34.6222 50.1009ZM36.4406 29.9907C33.8221 28.9433 32.5856 28.4894 32.5856 27.1976C32.5856 26.2899 33.6403 25.3472 35.5677 25.3472C37.0225 25.3821 38.4772 25.6963 39.7864 26.2549L40.8411 22.6589C39.3136 21.9257 37.6044 21.5765 35.8951 21.6115V18.7485H33.2402V21.786C29.7125 22.4843 27.785 24.6489 27.785 27.442C27.785 30.4795 29.9671 32.1553 33.4584 33.3424C35.9678 34.2851 37.0225 34.8088 37.0225 36.0656C37.0225 37.3225 35.9678 38.2652 33.7494 38.2652C31.931 38.2303 30.1853 37.7764 28.5851 37.0083L27.6396 40.7091C28.767 41.3027 31.0581 41.8962 33.3129 41.8962V44.6893H35.9678V41.8264C39.8228 40.9884 41.6412 38.8238 41.6412 35.926C41.6412 33.0282 40.041 31.2476 36.4406 29.9907Z" fill="white"/>
</svg>
